<svg width="1614" height="1446" viewBox="0 0 1614 1446" fill="none" xmlns="http://www.w3.org/2000/svg">
<mask id="mask0_36_14" style="mask-type:luminance" maskUnits="userSpaceOnUse" x="179" y="270" width="1435" height="1176">
<path d="M1588.81 813.722L1276.39 1354.85C1243.93 1411.09 1183.93 1445.72 1119 1445.72H494.173C429.244 1445.72 369.247 1411.07 336.783 1354.85L179.393 1082.23H286.719L417.271 1308.37C433.123 1335.85 462.441 1352.77 494.159 1352.77H1119.01C1150.73 1352.77 1180.05 1335.85 1195.9 1308.37L1508.32 767.232C1524.18 739.767 1524.18 705.929 1508.32 678.464C1492.46 650.986 1463.15 634.067 1431.43 634.067H416.045C380.273 634.067 357.915 595.336 375.807 564.365L532.01 293.781C540.317 279.409 555.662 270.556 572.261 270.556H1040.89C1057.48 270.556 1072.83 279.409 1081.12 293.795L1081.14 293.808C1089.44 308.181 1089.44 325.9 1081.14 340.272L981.689 512.501H874.376L960.411 363.497H599.1L496.559 541.113H1431.42C1496.35 541.113 1556.35 575.751 1588.81 631.974C1621.28 688.21 1621.28 757.486 1588.81 813.722Z" fill="white"/>
</mask>
<g mask="url(#mask0_36_14)">
<path d="M1588.81 813.722L1276.39 1354.85C1243.93 1411.09 1183.93 1445.72 1119 1445.72H494.173C429.244 1445.72 369.247 1411.07 336.783 1354.85L179.393 1082.23H286.719L417.271 1308.37C433.123 1335.85 462.441 1352.77 494.159 1352.77H1119.01C1150.73 1352.77 1180.05 1335.85 1195.9 1308.37L1508.32 767.232C1524.18 739.767 1524.18 705.929 1508.32 678.464C1492.46 650.986 1463.15 634.067 1431.43 634.067H416.045C380.273 634.067 357.915 595.336 375.807 564.365L532.01 293.781C540.317 279.409 555.662 270.556 572.261 270.556H1040.89C1057.48 270.556 1072.83 279.409 1081.12 293.795L1081.14 293.808C1089.44 308.181 1089.44 325.9 1081.14 340.272L981.689 512.501H874.376L960.411 363.497H599.1L496.559 541.113H1431.42C1496.35 541.113 1556.35 575.751 1588.81 631.974C1621.28 688.21 1621.28 757.486 1588.81 813.722Z" fill="url(#paint0_linear_36_14)"/>
</g>
<mask id="mask1_36_14" style="mask-type:luminance" maskUnits="userSpaceOnUse" x="0" y="0" width="1434" height="1176">
<path d="M24.3485 813.749C-8.11616 757.513 -8.11616 688.237 24.3485 632.001L336.769 90.8745C369.233 34.6381 429.23 0 494.159 0H1118.99C1183.92 0 1243.91 34.6514 1276.38 90.8745L1433.77 363.497H1326.44L1195.89 137.352C1180.04 109.873 1150.72 92.9543 1119 92.9543H494.146C462.428 92.9543 433.11 109.873 417.257 137.352L104.837 678.491C88.9843 705.956 88.9843 739.794 104.837 767.259C120.702 794.737 150.007 811.656 181.725 811.656H1197.11C1232.89 811.656 1255.24 850.387 1237.35 881.358L1081.15 1151.94C1072.84 1166.31 1057.5 1175.17 1040.9 1175.17H572.274C555.675 1175.17 540.33 1166.31 532.037 1151.93C523.731 1137.56 523.731 1119.84 532.037 1105.46L631.484 933.222H738.797L652.763 1082.23H1014.06L1116.6 904.61H181.739C116.809 904.61 56.8131 869.972 24.3485 813.749Z" fill="white"/>
</mask>
<g mask="url(#mask1_36_14)">
<path d="M24.3485 813.749C-8.11616 757.513 -8.11616 688.237 24.3485 632.001L336.769 90.8745C369.233 34.6381 429.23 0 494.159 0H1118.99C1183.92 0 1243.91 34.6514 1276.38 90.8745L1433.77 363.497H1326.44L1195.89 137.352C1180.04 109.873 1150.72 92.9543 1119 92.9543H494.146C462.428 92.9543 433.11 109.873 417.257 137.352L104.837 678.491C88.9843 705.956 88.9843 739.794 104.837 767.259C120.702 794.737 150.007 811.656 181.725 811.656H1197.11C1232.89 811.656 1255.24 850.387 1237.35 881.358L1081.15 1151.94C1072.84 1166.31 1057.5 1175.17 1040.9 1175.17H572.274C555.675 1175.17 540.33 1166.31 532.037 1151.93C523.731 1137.56 523.731 1119.84 532.037 1105.46L631.484 933.222H738.797L652.763 1082.23H1014.06L1116.6 904.61H181.739C116.809 904.61 56.8131 869.972 24.3485 813.749Z" fill="url(#paint1_linear_36_14)"/>
</g>
<defs>
<linearGradient id="paint0_linear_36_14" x1="352.475" y1="1379.3" x2="1348.69" y2="383.088" gradientUnits="userSpaceOnUse">
<stop offset="1" stop-color="#7C3AED"/>
</linearGradient>
<linearGradient id="paint1_linear_36_14" x1="264.467" y1="1062.63" x2="1260.68" y2="66.4148" gradientUnits="userSpaceOnUse">
<stop offset="1" stop-color="#7C3AED"/>
</linearGradient>
</defs>
</svg>
